<svg width="1451.1500000000003" height="653.44" xmlns="http://www.w3.org/2000/svg">
 <title>simple-codelines</title>

 <g>
  <title>background</title>
  <rect fill="none" id="canvas_background" height="402" width="582" y="-1" x="-1"/>
 </g>
 <g>
  <title>Layer 1</title>
  <path id="svg_1" fill="#418fc9" d="m101.96,499.470088a1.5,1.5 0 1 1 0,-3a18.74,18.74 0 0 0 18.72,-18.72a1.5,1.5 0 0 1 3,0a21.75,21.75 0 0 1 -21.72,21.72z"/>
  <path id="svg_2" fill="#418fc9" d="m44.25,275.450088l-20.54,0a1.5,1.5 0 1 1 0,-3l20.54,0a17.3,17.3 0 0 0 17.28,-17.28l0,-64.24a20.3,20.3 0 0 1 20.28,-20.28l25.63,0a17.3,17.3 0 0 0 17.28,-17.28l0,-150.21a1.5,1.5 0 0 1 3,0l0,150.23a20.3,20.3 0 0 1 -20.28,20.28l-25.64,0a17.3,17.3 0 0 0 -17.28,17.28l0,64.24a20.3,20.3 0 0 1 -20.27,20.26z"/>
  <path id="svg_3" fill="#418fc9" d="m223.65,92.260088l-56.28,0a1.5,1.5 0 1 1 0,-3l56.28,0a1.5,1.5 0 0 1 0,3z"/>
  <path id="svg_4" fill="#418fc9" d="m98.74,112.560088l-44.13,0a1.5,1.5 0 0 1 0,-3l44.13,0a1.5,1.5 0 1 1 0,3z"/>
  <path id="svg_5" fill="#418fc9" d="m154.55,112.560088l-12.75,0a1.5,1.5 0 1 1 0,-3l12.75,0a1.5,1.5 0 1 1 0,3z"/>
  <path id="svg_6" fill="#418fc9" d="m51.26,51.430088l-43.19,0a1.5,1.5 0 0 1 -1.5,-1.5a1.5,1.5 0 0 1 1.5,-1.5l43.19,0a1.5,1.5 0 1 1 0,3z"/>
  <path id="svg_7" fill="#418fc9" d="m89.55,51.430088l-22.18,0a1.5,1.5 0 1 1 0,-3l22.18,0a1.5,1.5 0 0 1 0,3z"/>
  <path id="svg_8" fill="#418fc9" d="m180.69,51.430088l-27.88,0a1.5,1.5 0 1 1 0,-3l27.88,0a1.5,1.5 0 0 1 0,3z"/>
  <path id="svg_9" fill="#418fc9" d="m218.48,51.430088l-19.51,0a1.5,1.5 0 1 1 0,-3l19.51,0a1.5,1.5 0 0 1 0,3z"/>
  <path id="svg_10" fill="#418fc9" d="m310.34,51.430088l-14.27,0a1.5,1.5 0 1 1 0,-3l14.29,0a1.5,1.5 0 1 1 -0.02,3z"/>
  <path id="svg_11" fill="#418fc9" d="m361.07,51.430088l-33.68,0a1.5,1.5 0 1 1 0,-3l33.68,0a1.5,1.5 0 1 1 0,3z"/>
  <path id="svg_12" fill="#418fc9" d="m77.12,71.730088l-15.51,0a1.5,1.5 0 0 1 0,-3l15.51,0a1.5,1.5 0 1 1 0,3z"/>
  <path id="svg_13" fill="#418fc9" d="m110.45,153.390088l-18.5,0a1.5,1.5 0 1 1 0,-3l18.5,0a1.5,1.5 0 0 1 0,3z"/>
  <path id="svg_14" fill="#418fc9" d="m88.38,173.690088l-52.69,0a1.5,1.5 0 1 1 0,-3l52.69,0a1.5,1.5 0 0 1 0,3z"/>
  <path id="svg_15" fill="#418fc9" d="m106.26,132.860088l-15.19,0a1.5,1.5 0 0 1 0,-3l15.19,0a1.5,1.5 0 0 1 0,3z"/>
  <path id="svg_16" fill="#418fc9" d="m45.64,234.850088l-38.57,0a1.5,1.5 0 0 1 -1.5,-1.5a1.5,1.5 0 0 1 1.5,-1.5l38.6,0a1.5,1.5 0 0 1 -0.03,3z"/>
  <path id="svg_17" fill="#418fc9" d="m101.67,234.850088l-22,0a1.5,1.5 0 1 1 0,-3l22,0a1.5,1.5 0 0 1 0,3z"/>
  <path id="svg_18" fill="#418fc9" d="m195.15,234.850088l-16.83,0a1.5,1.5 0 0 1 0,-3l16.83,0a1.5,1.5 0 0 1 0,3z"/>
  <path id="svg_19" fill="#418fc9" d="m250.71,234.850088l-38.83,0a1.5,1.5 0 1 1 0,-3l38.82,0a1.5,1.5 0 1 1 0.01,3z"/>
  <path id="svg_20" fill="#418fc9" d="m165.67,255.150088l-23.32,0a1.5,1.5 0 0 1 0,-3l23.32,0a1.5,1.5 0 0 1 0,3z"/>
  <path id="svg_21" fill="#418fc9" d="m127.91,194.020088l-15.73,0a1.5,1.5 0 1 1 0,-3l15.73,0a1.5,1.5 0 1 1 0,3z"/>
  <path id="svg_22" fill="#418fc9" d="m191.63,194.020088l-45.33,0a1.5,1.5 0 0 1 0,-3l45.33,0a1.5,1.5 0 1 1 0,3z"/>
  <path id="svg_23" fill="#418fc9" d="m229.76,194.020088l-23.46,0a1.5,1.5 0 0 1 0,-3l23.46,0a1.5,1.5 0 1 1 0,3z"/>
  <path id="svg_24" fill="#418fc9" d="m138.16,214.320088l-58.54,0a1.5,1.5 0 1 1 0,-3l58.54,0a1.5,1.5 0 1 1 0,3z"/>
  <path id="svg_25" fill="#418fc9" d="m210.29,214.320088l-42.85,0a1.5,1.5 0 1 1 0,-3l42.85,0a1.5,1.5 0 0 1 0,3z"/>
  <path id="svg_26" fill="#418fc9" d="m281.78,214.320088l-56.38,0a1.5,1.5 0 0 1 0,-3l56.37,0a1.5,1.5 0 1 1 0.01,3z"/>
  <path id="svg_27" fill="#418fc9" d="m35.86,214.320088l-21.28,0a1.5,1.5 0 0 1 0,-3l21.28,0a1.5,1.5 0 1 1 0,3z"/>
  <path id="svg_28" fill="#418fc9" d="m74.54,295.980088l-36.17,0a1.5,1.5 0 0 1 0,-3l36.17,0a1.5,1.5 0 0 1 0,3z"/>
  <path id="svg_29" fill="#418fc9" d="m121.07,295.980088l-30.77,0a1.5,1.5 0 0 1 0,-3l30.77,0a1.5,1.5 0 1 1 0,3z"/>
  <path id="svg_30" fill="#418fc9" d="m218.74,295.980088l-35.08,0a1.5,1.5 0 0 1 0,-3l35.08,0a1.5,1.5 0 1 1 0,3z"/>
  <path id="svg_31" fill="#418fc9" d="m94.68,275.450088l-23.83,0a1.5,1.5 0 1 1 0,-3l23.83,0a1.5,1.5 0 0 1 0,3z"/>
  <path id="svg_32" fill="#418fc9" d="m117.32,275.450088l-11,0a1.5,1.5 0 0 1 0,-3l11,0a1.5,1.5 0 0 1 0,3z"/>
  <path id="svg_33" fill="#418fc9" d="m130.51,377.410088l-26.8,0a1.5,1.5 0 0 1 0,-3l26.81,0a1.5,1.5 0 0 1 -0.01,3z"/>
  <path id="svg_34" fill="#418fc9" d="m161.82,397.710088l-8.86,0a1.5,1.5 0 1 1 0,-3l8.86,0a1.5,1.5 0 0 1 0,3z"/>
  <path id="svg_35" fill="#418fc9" d="m53.64,336.580088l-45.57,0a1.5,1.5 0 0 1 -1.5,-1.5a1.5,1.5 0 0 1 1.5,-1.5l45.6,0a1.5,1.5 0 1 1 -0.03,3z"/>
  <path id="svg_36" fill="#418fc9" d="m184.07,336.580088l-17.2,0a1.5,1.5 0 0 1 0,-3l17.2,0a1.5,1.5 0 1 1 0,3z"/>
  <path id="svg_37" fill="#418fc9" d="m78.46,356.880088l-20.39,0a1.5,1.5 0 1 1 0,-3l20.39,0a1.5,1.5 0 1 1 0,3z"/>
  <path id="svg_38" fill="#418fc9" d="m130.51,356.880088l-37.86,0a1.5,1.5 0 1 1 0,-3l37.86,0a1.5,1.5 0 0 1 0,3z"/>
  <path id="svg_39" fill="#418fc9" d="m181.73,356.880088l-24.27,0a1.5,1.5 0 1 1 0,-3l24.27,0a1.5,1.5 0 0 1 0,3z"/>
  <path id="svg_40" fill="#418fc9" d="m200.26,356.880088l-9,0a1.5,1.5 0 0 1 0,-3l9,0a1.5,1.5 0 1 1 0,3z"/>
  <path id="svg_41" fill="#418fc9" d="m119.81,438.540088l-40.23,0a1.5,1.5 0 0 1 0,-3l40.23,0a1.5,1.5 0 0 1 0,3z"/>
  <path id="svg_42" fill="#418fc9" d="m62.41,438.430088l-38,0a1.5,1.5 0 0 1 0,-3l38,0a1.5,1.5 0 0 1 0,3z"/>
  <path id="svg_43" fill="#418fc9" d="m70.34,458.840088l-11.64,0a1.5,1.5 0 0 1 0,-3l11.64,0a1.5,1.5 0 1 1 0,3z"/>
  <path id="svg_44" fill="#418fc9" d="m206.3,458.840088l-23.06,0a1.5,1.5 0 0 1 0,-3l23.07,0a1.5,1.5 0 0 1 -0.01,3z"/>
  <path id="svg_45" fill="#418fc9" d="m80.98,418.010088l-16.25,0a1.5,1.5 0 0 1 0,-3l16.25,0a1.5,1.5 0 1 1 0,3z"/>
  <path id="svg_46" fill="#418fc9" d="m104.64,418.010088l-8.76,0a1.5,1.5 0 1 1 0,-3l8.76,0a1.5,1.5 0 0 1 0,3z"/>
  <path id="svg_47" fill="#418fc9" d="m197.62,653.430088a1.5,1.5 0 0 1 -1.5,-1.5l0,-13a17.29,17.29 0 0 0 -17.27,-17.23l0,0l-81.4,0.08l0,0a20.28,20.28 0 0 1 -20.38,-20.18l-0.19,-57l0,-5.72a18.87,18.87 0 0 0 -18.81,-18.88l-30.77,0a1.5,1.5 0 0 1 0,-3l30.77,0a21.88,21.88 0 0 1 21.85,21.85l0,5.71l0.19,57a17.28,17.28 0 0 0 17.27,17.24l0,0l81.4,-0.08l0,0a20.3,20.3 0 0 1 20.29,20.25l0,13a1.5,1.5 0 0 1 -1.5,1.5l0,0l0.05,-0.04z"/>
  <path id="svg_48" fill="#418fc9" d="m112.87,520.000088l-28.73,0a1.5,1.5 0 1 1 0,-3l28.73,0a1.5,1.5 0 0 1 0,3z"/>
  <path id="svg_49" fill="#418fc9" d="m191.22,520.000088l-63,0a1.5,1.5 0 0 1 0,-3l63,0a1.5,1.5 0 1 1 0,3z"/>
  <path id="svg_50" fill="#418fc9" d="m64.73,540.300088l-13.47,0a1.5,1.5 0 1 1 0,-3l13.47,0a1.5,1.5 0 1 1 0,3z"/>
  <path id="svg_51" fill="#418fc9" d="m150.62,479.170088l-40.18,0a1.5,1.5 0 1 1 0,-3l40.18,0a1.5,1.5 0 0 1 0,3z"/>
  <path id="svg_52" fill="#418fc9" d="m40.97,499.470088l-32.9,0a1.5,1.5 0 0 1 -1.5,-1.5a1.5,1.5 0 0 1 1.5,-1.5l32.9,0a1.5,1.5 0 1 1 0,3z"/>
  <path id="svg_53" fill="#418fc9" d="m133.07,499.470088l-34.73,0a1.5,1.5 0 0 1 0,-3l34.73,0a1.5,1.5 0 0 1 0,3z"/>
  <path id="svg_54" fill="#418fc9" d="m153.87,499.470088l-6.68,0a1.5,1.5 0 0 1 0,-3l6.68,0a1.5,1.5 0 0 1 0,3z"/>
  <path id="svg_55" fill="#418fc9" d="m158.85,581.090088l-32.63,0a1.5,1.5 0 0 1 0,-3l32.63,0a1.5,1.5 0 0 1 0,3z"/>
  <path id="svg_56" fill="#418fc9" d="m184.94,581.090088l-13.54,0a1.5,1.5 0 1 1 0,-3l13.54,0a1.5,1.5 0 1 1 0,3z"/>
  <path id="svg_57" fill="#418fc9" d="m141.9,601.430088l-44.06,0a1.5,1.5 0 1 1 0,-3l44.06,0a1.5,1.5 0 1 1 0,3z"/>
  <path id="svg_58" fill="#418fc9" d="m34.62,560.600088l-33.12,0a1.5,1.5 0 0 1 -1.5,-1.5a1.5,1.5 0 0 1 1.5,-1.5l33.12,0a1.5,1.5 0 0 1 0,3z"/>
  <path id="svg_59" fill="#418fc9" d="m131.07,560.600088l-19.61,0a1.5,1.5 0 0 1 0,-3l19.61,0a1.5,1.5 0 1 1 0,3z"/>
  <path id="svg_60" fill="#418fc9" d="m166.89,560.600088l-22.11,0a1.5,1.5 0 1 1 0,-3l22.11,0a1.5,1.5 0 1 1 0,3z"/>
  <path id="svg_61" fill="#418fc9" d="m368.85,601.430088l-39.86,0a1.5,1.5 0 1 1 0,-3l39.86,0a1.5,1.5 0 0 1 0,3z"/>
  <path id="svg_62" fill="#418fc9" d="m1338.07,92.260088l-51.7,0a1.5,1.5 0 0 1 0,-3l51.7,0a1.5,1.5 0 1 1 0,3z"/>
  <path id="svg_63" fill="#418fc9" d="m1274.74,92.260088l-31.33,0a1.5,1.5 0 0 1 0,-3l31.33,0a1.5,1.5 0 0 1 0,3z"/>
  <path id="svg_64" fill="#418fc9" d="m1194.99,92.260088l-28.34,0a1.5,1.5 0 0 1 0,-3l28.34,0a1.5,1.5 0 0 1 0,3z"/>
  <path id="svg_65" fill="#418fc9" d="m1445.98,92.260088l-24.91,0a1.5,1.5 0 0 1 0,-3l24.94,0a1.5,1.5 0 1 1 -0.03,3z"/>
  <path id="svg_66" fill="#418fc9" d="m1288.07,112.560088l-15.6,0a1.5,1.5 0 0 1 0,-3l15.6,0a1.5,1.5 0 0 1 0,3z"/>
  <path id="svg_67" fill="#418fc9" d="m1374.64,51.430088l-63.57,0a1.5,1.5 0 0 1 0,-3l63.58,0a1.5,1.5 0 0 1 -0.01,3z"/>
  <path id="svg_68" fill="#418fc9" d="m1195.33,51.430088l-15.44,0a1.5,1.5 0 1 1 0,-3l15.44,0a1.5,1.5 0 1 1 0,3z"/>
  <path id="svg_69" fill="#418fc9" d="m1166.64,51.430088l-96.75,0a1.5,1.5 0 1 1 0,-3l96.75,0a1.5,1.5 0 0 1 0,3z"/>
  <path id="svg_70" fill="#418fc9" d="m1400.65,51.430088l-12.89,0a1.5,1.5 0 0 1 0,-3l12.89,0a1.5,1.5 0 0 1 0,3z"/>
  <path id="svg_71" fill="#418fc9" d="m1139.32,71.730088l-22.25,0a1.5,1.5 0 1 1 0,-3l22.27,0a1.5,1.5 0 0 1 -0.02,3z"/>
  <path id="svg_72" fill="#418fc9" d="m1352.16,71.730088l-29.09,0a1.5,1.5 0 0 1 0,-3l29.09,0a1.5,1.5 0 0 1 0,3z"/>
  <path id="svg_73" fill="#418fc9" d="m1322.48,31.090088l-30.62,0a1.5,1.5 0 1 1 0,-3l30.62,0a1.5,1.5 0 1 1 0,3z"/>
  <path id="svg_74" fill="#418fc9" d="m1149.9,31.090088l-37.33,0a1.5,1.5 0 1 1 0,-3l37.32,0a1.5,1.5 0 0 1 0.01,3z"/>
  <path id="svg_75" fill="#418fc9" d="m1095.07,31.090088l-114,0a1.5,1.5 0 0 1 0,-3l114,0a1.5,1.5 0 1 1 0,3z"/>
  <path id="svg_76" fill="#418fc9" d="m398.78,31.090088l-78.71,0a1.5,1.5 0 1 1 0,-3l78.74,0a1.5,1.5 0 1 1 -0.03,3z"/>
  <path id="svg_77" fill="#418fc9" d="m454.5,31.090088l-41.81,0a1.5,1.5 0 0 1 0,-3l41.81,0a1.5,1.5 0 1 1 0,3z"/>
  <path id="svg_78" fill="#418fc9" d="m1332.14,153.390088l-9.07,0a1.5,1.5 0 1 1 0,-3l9.07,0a1.5,1.5 0 0 1 0,3z"/>
  <path id="svg_79" fill="#418fc9" d="m1383.99,153.390088l-35.28,0a1.5,1.5 0 0 1 0,-3l35.28,0a1.5,1.5 0 0 1 0,3z"/>
  <path id="svg_80" fill="#418fc9" d="m1290.45,173.690088l-23.81,0a1.5,1.5 0 0 1 0,-3l23.81,0a1.5,1.5 0 0 1 0,3z"/>
  <path id="svg_81" fill="#418fc9" d="m1418.42,173.690088l-34.26,0a1.5,1.5 0 0 1 0,-3l34.26,0a1.5,1.5 0 1 1 0,3z"/>
  <path id="svg_82" fill="#418fc9" d="m1377.74,132.860088l-18.43,0a1.5,1.5 0 0 1 0,-3l18.43,0a1.5,1.5 0 0 1 0,3z"/>
  <path id="svg_83" fill="#418fc9" d="m1259.49,234.850088l-12.42,0a1.5,1.5 0 0 1 0,-3l12.42,0a1.5,1.5 0 0 1 0,3z"/>
  <path id="svg_84" fill="#418fc9" d="m1296.83,234.850088l-24.17,0a1.5,1.5 0 0 1 0,-3l24.17,0a1.5,1.5 0 0 1 0,3z"/>
  <path id="svg_85" fill="#418fc9" d="m1337.32,234.850088l-14.25,0a1.5,1.5 0 1 1 0,-3l14.25,0a1.5,1.5 0 0 1 0,3z"/>
  <path id="svg_86" fill="#418fc9" d="m1389.65,234.850088l-37.49,0a1.5,1.5 0 0 1 0,-3l37.49,0a1.5,1.5 0 1 1 0,3z"/>
  <path id="svg_87" fill="#418fc9" d="m1445.01,234.850088l-20.13,0a1.5,1.5 0 0 1 0,-3l20.13,0a1.5,1.5 0 1 1 0,3z"/>
  <path id="svg_88" fill="#418fc9" d="m1401.57,194.020088l-42.27,0a1.5,1.5 0 0 1 0,-3l42.27,0a1.5,1.5 0 1 1 0,3z"/>
  <path id="svg_89" fill="#418fc9" d="m1351.16,214.320088l-28.68,0a1.5,1.5 0 1 1 0,-3l28.68,0a1.5,1.5 0 0 1 0,3z"/>
  <path id="svg_90" fill="#418fc9" d="m1377.74,214.320088l-10.55,0a1.5,1.5 0 0 1 0,-3l10.55,0a1.5,1.5 0 0 1 0,3z"/>
  <path id="svg_91" fill="#418fc9" d="m1280.18,296.360088l-27.11,0a1.5,1.5 0 1 1 0,-3l27.08,0a1.5,1.5 0 0 1 0.03,3z"/>
  <path id="svg_92" fill="#418fc9" d="m1322.48,296.360088l-26.22,0a1.5,1.5 0 1 1 0,-3l26.22,0a1.5,1.5 0 1 1 0,3z"/>
  <path id="svg_93" fill="#418fc9" d="m1389.65,296.360088l-49.43,0a1.5,1.5 0 1 1 0,-3l49.43,0a1.5,1.5 0 0 1 0,3z"/>
  <path id="svg_94" fill="#418fc9" d="m1262.71,316.280088l-29,0a1.5,1.5 0 0 1 0,-3l29,0a1.5,1.5 0 0 1 0,3z"/>
  <path id="svg_95" fill="#418fc9" d="m1442.54,336.540088l-24.22,0a1.5,1.5 0 0 1 0,-3l24.22,0a1.5,1.5 0 0 1 0,3z"/>
  <path id="svg_96" fill="#418fc9" d="m1305.32,275.450088l-15.25,0a1.5,1.5 0 0 1 0,-3l15.2,0a1.5,1.5 0 0 1 0.05,3z"/>
  <path id="svg_97" fill="#418fc9" d="m1350.5,275.450088l-28.87,0a1.5,1.5 0 0 1 0,-3l28.87,0a1.5,1.5 0 0 1 0,3z"/>
  <path id="svg_98" fill="#418fc9" d="m1447.81,275.450088l-29.5,0a1.5,1.5 0 0 1 0,-3l29.5,0a1.5,1.5 0 0 1 0,3z"/>
  <path id="svg_99" fill="#418fc9" d="m1339.57,377.410088l-42.4,0a1.5,1.5 0 0 1 0,-3l42.4,0a1.5,1.5 0 0 1 0,3z"/>
  <path id="svg_100" fill="#418fc9" d="m1374.78,377.410088l-20.71,0a1.5,1.5 0 0 1 0,-3l20.68,0a1.5,1.5 0 1 1 0.03,3z"/>
  <path id="svg_101" fill="#418fc9" d="m1441.13,397.710088l-22.82,0a1.5,1.5 0 0 1 0,-3l22.82,0a1.5,1.5 0 0 1 0,3z"/>
  <path id="svg_102" fill="#418fc9" d="m1388.65,336.580088l-30.35,0a1.5,1.5 0 0 1 0,-3l30.35,0a1.5,1.5 0 0 1 0,3z"/>
  <path id="svg_103" fill="#418fc9" d="m1320.65,356.880088l-9.19,0a1.5,1.5 0 0 1 0,-3l9.19,0a1.5,1.5 0 0 1 0,3z"/>
  <path id="svg_104" fill="#418fc9" d="m1354.07,356.880088l-21.12,0a1.5,1.5 0 1 1 0,-3l21.12,0a1.5,1.5 0 0 1 0,3z"/>
  <path id="svg_105" fill="#418fc9" d="m1442.29,356.880088l-23.87,0a1.5,1.5 0 1 1 0,-3l23.87,0a1.5,1.5 0 0 1 0,3z"/>
  <path id="svg_106" fill="#418fc9" d="m1388.95,438.540088l-51.34,0a1.5,1.5 0 0 1 0,-3l51.34,0a1.5,1.5 0 1 1 0,3z"/>
  <path id="svg_107" fill="#418fc9" d="m1393.47,458.840088l-27.12,0a1.5,1.5 0 1 1 0,-3l27.12,0a1.5,1.5 0 0 1 0,3z"/>
  <path id="svg_108" fill="#418fc9" d="m1351.91,418.010088l-41.84,0a1.5,1.5 0 0 1 0,-3l41.84,0a1.5,1.5 0 1 1 0,3z"/>
  <path id="svg_109" fill="#418fc9" d="m1388.95,418.010088l-12.64,0a1.5,1.5 0 1 1 0,-3l12.64,0a1.5,1.5 0 0 1 0,3z"/>
  <path id="svg_110" fill="#418fc9" d="m1320.75,520.000088l-46,0a1.5,1.5 0 1 1 0,-3l46,0a1.5,1.5 0 0 1 0,3z"/>
  <path id="svg_111" fill="#418fc9" d="m1392,520.000088l-57.61,0a1.5,1.5 0 0 1 0,-3l57.61,0a1.5,1.5 0 1 1 0,3z"/>
  <path id="svg_112" fill="#418fc9" d="m1277.3,540.300088l-56.59,0a1.5,1.5 0 1 1 0,-3l56.59,0a1.5,1.5 0 1 1 0,3z"/>
  <path id="svg_113" fill="#418fc9" d="m1322.71,540.300088l-29.64,0a1.5,1.5 0 1 1 0,-3l29.62,0a1.5,1.5 0 1 1 0.02,3z"/>
  <path id="svg_114" fill="#418fc9" d="m1299.49,479.170088l-14.12,0a1.5,1.5 0 1 1 0,-3l14.12,0a1.5,1.5 0 0 1 0,3z"/>
  <path id="svg_115" fill="#418fc9" d="m1443.9,479.170088l-22.83,0a1.5,1.5 0 1 1 0,-3l22.86,0a1.5,1.5 0 0 1 -0.03,3z"/>
  <path id="svg_116" fill="#418fc9" d="m1324.68,499.470088l-33.55,0a1.5,1.5 0 0 1 0,-3l33.55,0a1.5,1.5 0 0 1 0,3z"/>
  <path id="svg_117" fill="#418fc9" d="m1359.3,499.470088l-14.33,0a1.5,1.5 0 0 1 0,-3l14.33,0a1.5,1.5 0 0 1 0,3z"/>
  <path id="svg_118" fill="#418fc9" d="m1208.59,601.430088l-16.52,0a1.5,1.5 0 0 1 0,-3l16.5,0a1.5,1.5 0 1 1 0.02,3z"/>
  <path id="svg_119" fill="#418fc9" d="m1407.36,601.430088l-35.58,0a1.5,1.5 0 1 1 0,-3l35.58,0a1.5,1.5 0 1 1 0,3z"/>
  <path id="svg_120" fill="#418fc9" d="m1441.42,601.430088l-19.19,0a1.5,1.5 0 0 1 0,-3l19.19,0a1.5,1.5 0 1 1 0,3z"/>
  <path id="svg_121" fill="#418fc9" d="m1355.64,621.730088l-13.44,0a1.5,1.5 0 1 1 0,-3l13.44,0a1.5,1.5 0 1 1 0,3z"/>
  <path id="svg_122" fill="#418fc9" d="m1326.39,621.730088l-26,0a1.5,1.5 0 1 1 0,-3l26,0a1.5,1.5 0 1 1 0,3z"/>
  <path id="svg_123" fill="#418fc9" d="m1150.21,621.730088l-21.79,0a1.5,1.5 0 1 1 0,-3l21.79,0a1.5,1.5 0 0 1 0,3z"/>
  <path id="svg_124" fill="#418fc9" d="m1117.07,621.730088l-63,0a1.5,1.5 0 1 1 0,-3l63,0a1.5,1.5 0 1 1 0,3z"/>
  <path id="svg_125" fill="#418fc9" d="m1217.85,621.730088l-50.52,0a1.5,1.5 0 1 1 0,-3l50.52,0a1.5,1.5 0 1 1 0,3z"/>
  <path id="svg_126" fill="#418fc9" d="m1386.32,642.040088l-65.94,0a1.5,1.5 0 1 1 0,-3l65.94,0a1.5,1.5 0 0 1 0,3z"/>
  <path id="svg_127" fill="#418fc9" d="m1185.57,642.040088l-36.65,0a1.5,1.5 0 1 1 0,-3l36.65,0a1.5,1.5 0 0 1 0,3z"/>
  <path id="svg_128" fill="#418fc9" d="m1078.15,642.040088l-18.87,0a1.5,1.5 0 1 1 0,-3l18.87,0a1.5,1.5 0 1 1 0,3z"/>
  <path id="svg_129" fill="#418fc9" d="m1046.23,642.040088l-67.87,0a1.5,1.5 0 1 1 0,-3l67.88,0a1.5,1.5 0 1 1 -0.01,3z"/>
  <path id="svg_130" fill="#418fc9" d="m322.25,621.730088l-16.67,0a1.5,1.5 0 1 1 0,-3l16.66,0a1.5,1.5 0 0 1 0.01,3z"/>
  <path id="svg_131" fill="#418fc9" d="m64.52,621.730088l-19.83,0a1.5,1.5 0 1 1 0,-3l19.83,0a1.5,1.5 0 1 1 0,3z"/>
  <path id="svg_132" fill="#418fc9" d="m352.14,621.730088l-17.81,0a1.5,1.5 0 1 1 0,-3l17.81,0a1.5,1.5 0 0 1 0,3z"/>
  <path id="svg_133" fill="#418fc9" d="m352.92,642.040088l-65.94,0a1.5,1.5 0 0 1 0,-3l65.94,0a1.5,1.5 0 1 1 0,3z"/>
  <path id="svg_134" fill="#418fc9" d="m272.17,642.040088l-60.53,0a1.5,1.5 0 0 1 0,-3l60.53,0a1.5,1.5 0 0 1 0,3z"/>
  <path id="svg_135" fill="#418fc9" d="m183.71,642.040088l-15.86,0a1.5,1.5 0 0 1 0,-3l15.85,0a1.5,1.5 0 1 1 0.01,3z"/>
  <path id="svg_136" fill="#418fc9" d="m97.84,642.040088l-72,0a1.5,1.5 0 1 1 0,-3l72,0a1.5,1.5 0 0 1 0,3z"/>
  <path id="svg_137" fill="#418fc9" d="m433.59,642.040088l-65.86,0a1.5,1.5 0 1 1 0,-3l65.86,0a1.5,1.5 0 1 1 0,3z"/>
  <path id="svg_138" fill="#418fc9" d="m1274.74,560.600088l-13.29,0a1.5,1.5 0 1 1 0,-3l13.29,0a1.5,1.5 0 1 1 0,3z"/>
  <path id="svg_139" fill="#418fc9" d="m1273.43,621.730088l-30.42,0a1.5,1.5 0 0 1 0,-3l30.42,0a17.3,17.3 0 0 0 17.28,-17.28l0,-23.58a20.3,20.3 0 0 1 20.28,-20.28l131.3,0a1.5,1.5 0 1 1 0,3l-131.3,0a17.3,17.3 0 0 0 -17.28,17.28l0,23.58a20.3,20.3 0 0 1 -20.28,20.28z"/>
  <path id="svg_140" fill="#418fc9" d="m146.65,71.840088a21.94,21.94 0 0 1 -21.93,-21.91a1.5,1.5 0 0 1 3,0a18.93,18.93 0 0 0 18.91,18.91l4.37,0l87.47,0a17.3,17.3 0 0 0 17.28,-17.28l0,-50a1.5,1.5 0 0 1 3,0l0,50a20.3,20.3 0 0 1 -20.28,20.28l-87.45,0l-4.37,0z"/>
  <path id="svg_141" fill="#418fc9" d="m190.48,586.140088a6.51,6.51 0 1 1 6.51,-6.51a6.52,6.52 0 0 1 -6.51,6.51zm0,-10a3.51,3.51 0 1 0 3.51,3.51a3.51,3.51 0 0 0 -3.51,-3.56l0,0.05z"/>
  <path id="svg_142" fill="#418fc9" d="m56.42,402.720088a6.51,6.51 0 1 1 6.51,-6.51a6.52,6.52 0 0 1 -6.51,6.51zm0,-10a3.51,3.51 0 1 0 3.51,3.51a3.51,3.51 0 0 0 -3.51,-3.52l0,0.01z"/>
  <path id="svg_143" fill="#418fc9" d="m143.17,219.330088a6.51,6.51 0 1 1 6.51,-6.51a6.52,6.52 0 0 1 -6.51,6.51zm0,-10a3.51,3.51 0 1 0 3.51,3.51a3.51,3.51 0 0 0 -3.51,-3.53l0,0.02z"/>
  <path id="svg_144" fill="#418fc9" d="m104.48,295.890088a1.5,1.5 0 0 1 -1.06,-0.44l-20.4,-20.36a1.5,1.5 0 0 1 2.12,-2.12l20.4,20.4a1.5,1.5 0 0 1 -1.06,2.52z"/>
  <path id="svg_145" fill="#418fc9" d="m341.53,51.220088a1.5,1.5 0 0 1 -1.06,-2.56l20.1,-20.1a1.5,1.5 0 0 1 2.12,2.12l-20.1,20.1a1.5,1.5 0 0 1 -1.06,0.44z"/>
  <path id="svg_146" fill="#418fc9" d="m1358.3,295.670088a1.5,1.5 0 0 1 -1.06,-0.44l-20.17,-20.22a1.5,1.5 0 0 1 2.12,-2.12l20.22,20.22a1.5,1.5 0 0 1 -1.11,2.56z"/>
  <path id="svg_147" fill="#418fc9" d="m1316.45,91.950088a1.5,1.5 0 0 1 -1.06,-2.56l20.22,-20.22a1.5,1.5 0 0 1 2.12,2.12l-20.22,20.22a1.5,1.5 0 0 1 -1.06,0.44z"/>
  <path id="svg_148" fill="#418fc9" d="m1292.87,519.840088a1.5,1.5 0 0 1 -1.06,-2.56l20.26,-20.19a1.5,1.5 0 0 1 2.12,2.12l-20.22,20.22a1.5,1.5 0 0 1 -1.1,0.41z"/>
  <path id="svg_149" fill="#418fc9" d="m121.87,601.350088a1.5,1.5 0 0 1 -1.06,-2.56l20.26,-20.22a1.5,1.5 0 1 1 2.12,2.12l-20.22,20.22a1.5,1.5 0 0 1 -1.1,0.44z"/>
  <path id="svg_150" fill="#418fc9" d="m123.45,397.710088l-62,0a1.5,1.5 0 0 1 0,-3l62,0a17,17 0 0 0 17.19,-17.11l0.22,-44.1a20.28,20.28 0 0 1 20.27,-20.22l16.87,0a18.85,18.85 0 0 0 18.85,-18.8a1.5,1.5 0 0 1 3,0a21.85,21.85 0 0 1 -21.85,21.8l-16.86,0a17.28,17.28 0 0 0 -17.28,17.24l-0.22,44.09a20.17,20.17 0 0 1 -20.19,20.1z"/>
  <path id="svg_151" fill="#418fc9" d="m102.14,499.470088a1.5,1.5 0 1 1 0,-3a18.67,18.67 0 0 0 18.58,-18.72a1.5,1.5 0 0 1 3,0a21.68,21.68 0 0 1 -21.58,21.72z"/>
  <path id="svg_152" fill="#418fc9" d="m315.07,36.090088a6.51,6.51 0 1 1 6.51,-6.51a6.52,6.52 0 0 1 -6.51,6.51zm0,-10a3.51,3.51 0 1 0 3.51,3.51a3.51,3.51 0 0 0 -3.51,-3.51z"/>
  <path id="svg_153" fill="#418fc9" d="m1382.75,137.870088a6.51,6.51 0 1 1 6.51,-6.51a6.52,6.52 0 0 1 -6.51,6.51zm0,-10a3.51,3.51 0 1 0 3.51,3.51a3.51,3.51 0 0 0 -3.51,-3.53l0,0.02z"/>
  <path id="svg_154" fill="#418fc9" d="m1371.28,423.020088a6.51,6.51 0 1 1 6.51,-6.51a6.51,6.51 0 0 1 -6.51,6.51zm0,-10a3.51,3.51 0 1 0 3.51,3.51a3.51,3.51 0 0 0 -3.51,-3.52l0,0.01z"/>
  <path id="svg_155" fill="#418fc9" d="m1237.84,626.740088a6.51,6.51 0 1 1 6.51,-6.51a6.52,6.52 0 0 1 -6.51,6.51zm0,-10a3.51,3.51 0 1 0 3.51,3.51a3.51,3.51 0 0 0 -3.51,-3.52l0,0.01z"/>
  <path id="svg_156" fill="#418fc9" d="m1374.07,194.020088a1.5,1.5 0 0 1 0,-3a18.74,18.74 0 0 0 18.72,-18.72a1.5,1.5 0 0 1 3,0a21.75,21.75 0 0 1 -21.72,21.72z"/>
  <path id="svg_157" fill="#418fc9" d="m1129.07,71.680088a1.5,1.5 0 0 1 -1.5,-1.5a21.77,21.77 0 0 1 21.75,-21.75a1.5,1.5 0 1 1 0,3a18.77,18.77 0 0 0 -18.75,18.75a1.5,1.5 0 0 1 -1.5,1.5z"/>
  <path id="svg_158" fill="#418fc9" d="m1330.86,49.860088l0,0a1.5,1.5 0 0 1 -1.5,-1.5a20.28,20.28 0 0 1 20.27,-20.23l94,0a1.5,1.5 0 0 1 0,3l-94,0a17.28,17.28 0 0 0 -17.32,17.24a1.5,1.5 0 0 1 -1.45,1.49z"/>
  <path id="svg_159" fill="#418fc9" d="m1442.54,458.840088l-20.47,0a20.3,20.3 0 0 1 -20.28,-20.28l0,-82.25a1.5,1.5 0 0 1 3,0l0,82.25a17.3,17.3 0 0 0 17.28,17.28l20.48,0a1.5,1.5 0 0 1 -0.01,3z"/>
  <path id="svg_160" fill="#418fc9" d="m1310.21,172.900088a1.5,1.5 0 0 1 -1.5,-1.5a17.27,17.27 0 0 0 -17.27,-17.23l0,0l-61.82,0.08l0,0a20.3,20.3 0 0 1 -20.27,-20.23l-0.28,-128.52a1.5,1.5 0 0 1 1.5,-1.5l0,0a1.5,1.5 0 0 1 1.5,1.5l0.19,128.52a17.29,17.29 0 0 0 17.27,17.23l0,0l61.82,-0.08l0,0a20.28,20.28 0 0 1 20.27,20.23a1.5,1.5 0 0 1 -1.5,1.5l0,0l0.09,0z"/>
  <path id="svg_161" fill="#418fc9" d="m1403.28,364.880088a1.5,1.5 0 0 1 -1.5,-1.5l0,-91.11a17.29,17.29 0 0 0 -17.28,-17.27l-55.64,0a20.3,20.3 0 0 1 -20.28,-20.28l0,-7.26l0.18,-97.67a20.28,20.28 0 0 1 20.27,-20.23l0,0l120.54,0.08a1.5,1.5 0 0 1 0,3l0,0l-120.54,-0.08l0,0a17.28,17.28 0 0 0 -17.28,17.24l-0.2,104.93a17.29,17.29 0 0 0 17.28,17.27l55.64,0a20.3,20.3 0 0 1 20.28,20.27l0,91.11a1.5,1.5 0 0 1 -1.47,1.5z"/>
  <path id="svg_162" fill="#418fc9" d="m189.47,214.240088a1.5,1.5 0 0 1 -1.5,-1.5a18.74,18.74 0 0 0 -18.72,-18.72a1.5,1.5 0 0 1 0,-3a21.75,21.75 0 0 1 21.72,21.72a1.5,1.5 0 0 1 -1.5,1.5z"/>
 </g>
</svg>